<svg width="23" height="23" viewBox="0 0 23 23" fill="none" xmlns="http://www.w3.org/2000/svg">
<g clip-path="url(#clip0_830_2141)">
<path d="M0 23L1.64955 16.848C0.712306 15.165 0.224939 13.2764 0.224939 11.3598C0.224939 5.09553 5.33293 0 11.6125 0C17.892 0 23 5.09553 23 11.3598C23 17.624 17.892 22.7195 11.6125 22.7195C9.72861 22.7195 7.86349 22.2427 6.19519 21.3451L0 23ZM6.50448 19.0358L6.89813 19.2695C8.33211 20.1203 9.96292 20.5691 11.6125 20.5691C16.7017 20.5691 20.8443 16.4366 20.8443 11.3598C20.8443 6.28293 16.7017 2.15041 11.6125 2.15041C6.52323 2.15041 2.3806 6.28293 2.3806 11.3598C2.3806 13.0333 2.84923 14.6882 3.73024 16.1374L3.97392 16.5301L3.05542 19.9614L6.52323 19.0358H6.50448Z" fill="#181818"/>
<path fill-rule="evenodd" clip-rule="evenodd" d="M15.8475 12.9398C15.3789 12.6593 14.7697 12.3508 14.2167 12.5752C13.795 12.7435 13.5232 13.4073 13.2514 13.7439C13.1108 13.9215 12.9421 13.9402 12.7265 13.8561C11.1332 13.2203 9.91479 12.1638 9.04315 10.7053C8.89319 10.4809 8.92131 10.3032 9.09938 10.0882C9.36181 9.77967 9.69922 9.42438 9.76483 9.00365C9.83981 8.58292 9.64299 8.09674 9.46491 7.72276C9.23997 7.24593 8.99629 6.56341 8.51829 6.29227C8.07779 6.03983 7.49669 6.18007 7.10305 6.49796C6.42823 7.04958 6.1002 7.90975 6.10957 8.76991C6.10957 9.013 6.13769 9.25609 6.20329 9.48983C6.34388 10.0508 6.59694 10.5837 6.89686 11.0793C7.1218 11.4532 7.35611 11.8272 7.61854 12.1732C8.47143 13.3232 9.53052 14.3236 10.7489 15.0809C11.3581 15.4549 12.0236 15.7821 12.7078 16.0065C13.4763 16.2589 14.1605 16.5207 14.9853 16.3618C15.8475 16.1935 16.7004 15.6606 17.0472 14.8284C17.1503 14.5854 17.1972 14.3049 17.1409 14.0431C17.0191 13.5008 16.2974 13.1829 15.8569 12.9211L15.8475 12.9398Z" fill="#181818"/>
</g>
<defs>
<clipPath id="clip0_830_2141">
<rect width="23" height="23" fill="white"/>
</clipPath>
</defs>
</svg>
