<svg width="16" height="16" viewBox="0 0 16 16" fill="none" xmlns="http://www.w3.org/2000/svg">
<path d="M3.7907 2.03091C3.80455 2.2601 3.76959 2.48962 3.68813 2.7043C3.60667 2.91899 3.48058 3.11395 3.31815 3.27631C3.15573 3.43867 2.96069 3.56472 2.74591 3.64615C2.53114 3.72758 2.30152 3.76252 2.07223 3.74867C1.85171 3.75715 1.63173 3.72133 1.4253 3.64335C1.21887 3.56536 1.03018 3.4468 0.870389 3.29465C0.710595 3.14251 0.582935 2.95989 0.494975 2.75758C0.407015 2.55526 0.360518 2.33738 0.358263 2.1168C0.34919 1.88488 0.386638 1.65348 0.468367 1.43623C0.550095 1.21898 0.674471 1.02027 0.834175 0.851787C0.993879 0.683303 1.18568 0.548457 1.3983 0.455177C1.61092 0.361897 1.84006 0.31207 2.07223 0.30863C2.30017 0.301711 2.52709 0.341561 2.73901 0.425724C2.95094 0.509887 3.14337 0.636576 3.30441 0.797968C3.46544 0.95936 3.59166 1.15203 3.6753 1.36409C3.75894 1.57615 3.79822 1.80309 3.7907 2.03091Z" fill="white"/>
<path d="M3.77715 4.60303H0.344727V15.7549H3.77715V4.60303Z" fill="white"/>
<path d="M12.0169 4.77939C11.3713 4.76083 10.7318 4.9087 10.16 5.20876C9.5881 5.50881 9.10314 5.95096 8.75176 6.49263H8.66586L8.49851 5.03253H5.40527C5.40527 5.9773 5.4912 7.09384 5.4912 8.38216V15.7595H8.92361V9.66596C8.90508 9.3769 8.93411 9.08675 9.00953 8.80708C9.2673 8.21039 9.69694 7.45096 10.6421 7.45096C11.845 7.45096 12.3606 8.48161 12.3606 9.8513V15.7731H15.793V9.4083C15.793 6.23496 14.1604 4.77939 12.0169 4.77939Z" fill="white"/>
</svg>
