<svg width="33" height="27" viewBox="0 0 33 27" fill="none" xmlns="http://www.w3.org/2000/svg">
<path d="M14 -1.49416e-06L14 8.5C14 13.3667 12.8667 17.3667 10.6 20.5C8.26667 23.7 4.9 25.7667 0.499998 26.7L0.499998 21.2C2.63333 20.6667 4.3 19.6667 5.5 18.2C6.7 16.8 7.43333 15.0667 7.7 13L2.5 13L2.5 -2.49953e-06L14 -1.49416e-06ZM32.5 1.23158e-07L32.5 8.5C32.5 13.3667 31.3667 17.3667 29.1 20.5C26.7667 23.7 23.4 25.7667 19 26.7L19 21.2C21.1333 20.6667 22.8 19.6667 24 18.2C25.2 16.8 25.9333 15.0667 26.2 13L21 13L21 -8.82204e-07L32.5 1.23158e-07Z" fill="#181818"/>
</svg>
