<svg width="19" height="19" viewBox="0 0 19 19" fill="none" xmlns="http://www.w3.org/2000/svg">
<path d="M3.59675 2.04258L3.59598 2.0658L3.59738 2.08899C3.60962 2.29262 3.57872 2.4965 3.50678 2.68713C3.43484 2.87777 3.32356 3.05068 3.18044 3.19453C3.0373 3.33839 2.86558 3.44993 2.6767 3.52193C2.48782 3.59393 2.28598 3.62481 2.08448 3.61257L2.05969 3.61106L2.03487 3.61202C1.83995 3.61955 1.64545 3.58772 1.46286 3.51837C1.28027 3.44902 1.11321 3.3435 0.971604 3.20794L0.62584 3.56911L0.971604 3.20794C0.829986 3.07236 0.716709 2.90949 0.638613 2.72888C0.560501 2.54823 0.519183 2.35361 0.517179 2.15653L0.517106 2.14935L0.516827 2.14218C0.508624 1.93134 0.542486 1.721 0.616353 1.52357C0.69021 1.32617 0.802546 1.14578 0.946621 0.992952C1.09069 0.840131 1.26358 0.717963 1.45504 0.633505C1.64649 0.549049 1.85272 0.503975 2.06162 0.500863L2.06162 0.500924L2.06942 0.500686C2.27165 0.494514 2.47302 0.530057 2.66118 0.60519C2.84936 0.680331 3.0204 0.793506 3.16364 0.937853C3.30688 1.08219 3.4193 1.25468 3.49386 1.44475C3.56841 1.63481 3.60345 1.83828 3.59675 2.04258Z" fill="#181818" stroke="#181818"/>
<path d="M0.5 17.9587V5.63257H3.57926V17.9587H0.5Z" fill="#181818" stroke="#181818"/>
<path d="M13.8587 5.84299L13.8659 5.8432H13.8732C15.0286 5.8432 16.0045 6.23396 16.6977 7.01805C17.3969 7.80885 17.8609 9.05956 17.8609 10.8746V17.9802H14.7816V11.404C14.7816 10.5355 14.6211 9.70934 14.2163 9.08424C13.7928 8.43035 13.1248 8.03563 12.2393 8.03563C10.772 8.03563 10.1453 9.2475 9.83971 9.95878L9.8255 9.99185L9.81617 10.0266C9.71386 10.4081 9.67362 10.8036 9.69698 11.1978V17.964H6.61774V9.64839C6.61774 8.86824 6.59186 8.14146 6.56632 7.47397C6.56437 7.42302 6.56242 7.37246 6.56049 7.32227C6.54444 6.90522 6.5294 6.51427 6.52146 6.14569H9.24553L9.39388 7.44709L9.44442 7.89046H9.89066H9.99275H10.2652L10.4129 7.66152C10.7841 7.08621 11.2962 6.61689 11.8996 6.2985C12.5031 5.98013 13.1778 5.82331 13.8587 5.84299Z" fill="#181818" stroke="#181818"/>
</svg>
