<svg width="17" height="16" viewBox="0 0 17 16" fill="none" xmlns="http://www.w3.org/2000/svg">
<path d="M0.827637 4.47498C0.916222 3.76726 1.13422 3.08185 1.47078 2.45293C2.3403 1.01631 3.69848 0.488351 5.26864 0.448844C7.4053 0.398562 9.54556 0.398562 11.6894 0.448844C13.1266 0.48476 14.4345 0.962438 15.3184 2.22307C15.8518 3.01894 16.1289 3.9589 16.1125 4.91674C16.1448 6.97111 16.1592 9.02908 16.1125 11.0834C16.0729 12.7392 15.498 14.1506 13.9566 14.9911C13.2466 15.3648 12.456 15.5596 11.6535 15.5585C9.54078 15.5837 7.42807 15.6016 5.31895 15.5585C3.73441 15.5226 2.35827 14.9875 1.47798 13.5544C1.14138 12.9243 0.923364 12.2377 0.834808 11.5288L0.827637 4.47498ZM8.49159 1.89624C7.44242 1.89624 6.39327 1.89624 5.3441 1.89624C3.70567 1.93216 2.69602 2.70075 2.40139 4.11223C2.33267 4.41172 2.29414 4.71733 2.28641 5.02449C2.28641 7.01062 2.25048 8.99675 2.28641 10.9829C2.32234 12.969 3.32481 14.0142 5.22912 14.0824C7.38495 14.1614 9.54078 14.1542 11.6966 14.0824C13.2847 14.0285 14.2117 13.2635 14.5315 11.8915C14.5922 11.648 14.6284 11.3989 14.6393 11.1481C14.6393 8.88182 14.7723 6.61555 14.5674 4.35646C14.5312 3.74084 14.2732 3.15914 13.8413 2.71881C13.4094 2.27848 12.8326 2.00926 12.2176 1.96089C10.9816 1.7885 9.73479 1.92498 8.49159 1.89624Z" fill="white"/>
<path d="M12.4369 8.02713C12.4369 8.80851 12.2051 9.57234 11.7708 10.222C11.3365 10.8717 10.7193 11.3781 9.99707 11.6771C9.27487 11.9761 8.4802 12.0544 7.71352 11.9019C6.94684 11.7495 6.24259 11.3732 5.68984 10.8207C5.13709 10.2682 4.76068 9.56424 4.60818 8.79787C4.45567 8.03151 4.53393 7.23716 4.83307 6.51526C5.13221 5.79336 5.63882 5.17634 6.28878 4.74223C6.93874 4.30812 7.70288 4.07642 8.48458 4.07642C9.53078 4.08301 10.5322 4.50136 11.272 5.24084C12.0118 5.98031 12.4303 6.98137 12.4369 8.02713ZM10.9674 8.00558C10.9766 7.50645 10.8371 7.01587 10.5664 6.59634C10.2957 6.1768 9.90623 5.84731 9.44754 5.64984C8.98885 5.45238 8.48175 5.39588 7.99083 5.48755C7.4999 5.57922 7.04739 5.81491 6.69096 6.16458C6.33452 6.51425 6.0903 6.96207 5.98941 7.45099C5.88851 7.93991 5.93552 8.44778 6.12443 8.90989C6.31335 9.37201 6.63561 9.76745 7.05017 10.0458C7.46474 10.3242 7.95282 10.4729 8.45224 10.473C9.11268 10.4778 9.74813 10.2208 10.2195 9.75841C10.6909 9.29598 10.9598 8.66572 10.9674 8.00558Z" fill="white"/>
<path d="M12.5448 3.02737C12.7306 3.03021 12.9114 3.08774 13.0647 3.19277C13.218 3.29779 13.3368 3.44566 13.4065 3.61786C13.4761 3.79007 13.4934 3.97898 13.4562 4.16096C13.419 4.34294 13.3289 4.50992 13.1973 4.64101C13.0657 4.77211 12.8983 4.86149 12.7161 4.898C12.5339 4.9345 12.345 4.9165 12.1729 4.84625C12.0009 4.776 11.8535 4.65662 11.749 4.50302C11.6445 4.34943 11.5876 4.16846 11.5855 3.98273C11.585 3.85683 11.6095 3.73209 11.6576 3.61573C11.7056 3.49937 11.7764 3.3937 11.8656 3.30485C11.9548 3.21599 12.0608 3.14572 12.1774 3.09809C12.294 3.05046 12.4188 3.02642 12.5448 3.02737Z" fill="white"/>
</svg>
