<svg width="195" height="72" viewBox="0 0 195 72" fill="none" xmlns="http://www.w3.org/2000/svg">
<g clip-path="url(#clip0_176_902)">
<path d="M2.31886 67.2038C2.0602 67.278 1.80811 67.3741 1.56524 67.4912L1.33022 66.8334C1.61707 66.6967 1.91544 66.5866 2.22171 66.5045C2.56015 66.4198 2.90781 66.3793 3.2563 66.3842C3.98104 66.3842 4.53816 66.5669 4.92767 66.9324C5.31717 67.2978 5.51149 67.8389 5.51061 68.5555V71.8539H4.75305V71.0397C4.54756 71.3011 4.29543 71.5207 4.00993 71.6868C3.65054 71.8861 3.24508 71.9831 2.83616 71.9676C2.59182 71.9678 2.34869 71.9327 2.11405 71.8633C1.88496 71.7975 1.6696 71.6897 1.47858 71.5451C1.29231 71.4053 1.13855 71.2254 1.02825 71.0183C0.910747 70.7901 0.852447 70.5352 0.858878 70.2776C0.853348 70.0156 0.909629 69.7561 1.023 69.5208C1.13182 69.3019 1.2919 69.1137 1.48909 68.9727C1.70688 68.8192 1.94955 68.706 2.20595 68.6384C2.50605 68.5594 2.81508 68.5212 3.12501 68.5248C3.42329 68.5215 3.72137 68.542 4.01649 68.5862C4.26534 68.6278 4.51169 68.6836 4.75436 68.7534V68.5662C4.75436 68.0795 4.61607 67.7123 4.33947 67.4645C4.06244 67.2185 3.67513 67.0941 3.17621 67.0941C2.88732 67.0912 2.59936 67.1281 2.32018 67.2038M2.06809 69.4219C1.941 69.5159 1.83859 69.6404 1.7699 69.7842C1.70121 69.9281 1.66835 70.087 1.67421 70.2468C1.67108 70.4066 1.70814 70.5644 1.78187 70.7054C1.85422 70.8384 1.95359 70.9542 2.07334 71.045C2.20123 71.1412 2.34479 71.2136 2.49742 71.259C2.66162 71.3077 2.83187 71.332 3.0029 71.3312C3.23699 71.333 3.46981 71.296 3.6922 71.2215C3.89531 71.1548 4.08547 71.0525 4.25413 70.9194C4.41042 70.7952 4.53926 70.639 4.63226 70.4608C4.72532 70.2783 4.77268 70.0753 4.77012 69.8698V69.3484C4.57186 69.2935 4.34604 69.2414 4.09002 69.1919C3.80173 69.1409 3.5095 69.1168 3.21691 69.1197C2.72062 69.1197 2.33856 69.22 2.07334 69.4219" fill="#333333"/>
<path d="M10.4406 66.458H11.2191V71.8543H10.4406V70.9183C10.2609 71.2131 10.0236 71.467 9.7434 71.6644C9.41154 71.883 9.0209 71.9905 8.62609 71.9719C8.33326 71.9743 8.04284 71.9179 7.77137 71.8061C7.52994 71.7084 7.31287 71.5573 7.13591 71.3636C6.95744 71.166 6.8211 70.9329 6.73546 70.679C6.64068 70.3973 6.59405 70.1011 6.5976 69.8033V66.458H7.38536V69.6094C7.38536 70.1112 7.51184 70.5079 7.7648 70.7993C8.01776 71.0908 8.37969 71.237 8.8506 71.2379C9.06635 71.2398 9.28041 71.199 9.48081 71.1176C9.67256 71.0425 9.84562 70.9251 9.9876 70.7739C10.1316 70.6192 10.2448 70.4376 10.3211 70.2391C10.4055 70.0199 10.4474 69.786 10.4445 69.5506L10.4406 66.458Z" fill="#333333"/>
<path d="M13.5455 70.3189C13.5455 70.6532 13.6273 70.8863 13.791 71.0182C13.9777 71.1576 14.2058 71.2275 14.437 71.2161C14.5663 71.2171 14.6954 71.2032 14.8217 71.1746C14.9547 71.1416 15.0834 71.0927 15.2051 71.0289V71.7174C15.0682 71.7939 14.9221 71.8519 14.7705 71.8899C14.6008 71.9296 14.4272 71.9488 14.2532 71.9474C14.0519 71.949 13.8516 71.9207 13.6584 71.8632C13.4813 71.813 13.3181 71.7214 13.1818 71.5958C13.0446 71.4648 12.9397 71.3026 12.8759 71.1225C12.7952 70.8987 12.7569 70.6615 12.763 70.4232V67.1676H12.0186V66.4576H12.7564V64.8291H13.5442V66.4576H15.2261V67.1676H13.5455V70.3189Z" fill="#333333"/>
<path d="M20.9399 70.2418C20.8043 70.5773 20.6074 70.8836 20.3596 71.1443C20.108 71.4053 19.8081 71.6129 19.4773 71.7553C19.1272 71.9057 18.7505 71.9817 18.3705 71.9786C17.9938 71.9824 17.6205 71.9064 17.2742 71.7553C16.9486 71.612 16.6531 71.4064 16.4037 71.1496C16.1562 70.8936 15.9612 70.59 15.83 70.2565C15.6914 69.9125 15.6214 69.544 15.6238 69.1722C15.6218 68.7983 15.6918 68.4276 15.83 68.0812C15.9607 67.7447 16.1557 67.4379 16.4037 67.1787C16.6531 66.918 16.9507 66.7103 17.2795 66.5677C17.6305 66.4153 18.0087 66.3389 18.3902 66.3431C18.7687 66.3393 19.1438 66.4158 19.4918 66.5677C19.8193 66.7101 20.1167 66.9157 20.3675 67.1733C20.6156 67.4281 20.8119 67.7303 20.9452 68.0625C21.0818 68.4083 21.1505 68.778 21.1474 69.1508C21.1485 69.525 21.0771 69.8958 20.9373 70.2418M20.1889 68.3446C20.0937 68.0968 19.9529 67.8699 19.774 67.6761C19.596 67.4861 19.3839 67.3327 19.1491 67.2241C18.904 67.1118 18.638 67.0547 18.3692 67.057C18.0983 67.0538 17.8299 67.109 17.5814 67.2188C17.3498 67.3198 17.1424 67.4708 16.9735 67.6614C16.8027 67.8574 16.6692 68.0841 16.5797 68.3299C16.4826 68.5908 16.4341 68.8678 16.4365 69.1468C16.4349 69.4279 16.4852 69.7069 16.5849 69.9691C16.6786 70.2167 16.8181 70.4436 16.9959 70.6376C17.1719 70.8261 17.3824 70.9778 17.6156 71.0841C17.8592 71.195 18.1234 71.2511 18.3902 71.2486C18.6611 71.2519 18.9295 71.1968 19.178 71.0868C19.4108 70.9845 19.6201 70.8337 19.7924 70.6443C19.9661 70.4522 20.1021 70.228 20.1929 69.9838C20.2898 69.7228 20.3383 69.4458 20.336 69.1668C20.3376 68.8857 20.2873 68.6067 20.1876 68.3446" fill="#333333"/>
<path d="M26.5871 67.0009C26.7061 66.8679 26.8421 66.7519 26.9915 66.6559C27.1489 66.5556 27.3195 66.4786 27.4983 66.4273C27.7033 66.3687 27.9155 66.3404 28.1285 66.3431C28.7442 66.3431 29.2248 66.5369 29.5727 66.922C29.9206 67.307 30.0979 67.8392 30.0979 68.5144V71.8569H29.3101V68.7042C29.3101 68.1828 29.1889 67.7817 28.9464 67.5009C28.8195 67.3585 28.6631 67.2467 28.4884 67.1737C28.3138 67.1006 28.1253 67.068 27.9368 67.0784C27.7438 67.0772 27.5525 67.1144 27.3735 67.1881C27.1964 67.2598 27.0368 67.3703 26.9061 67.5116C26.767 67.6638 26.6594 67.843 26.5897 68.0384C26.5078 68.2656 26.4677 68.5063 26.4716 68.7484V71.8583H25.6917V68.6855C25.6917 68.1774 25.5704 67.7826 25.328 67.5009C25.2029 67.3591 25.0482 67.2476 24.8754 67.1745C24.7025 67.1014 24.5158 67.0686 24.3288 67.0784C24.128 67.0762 23.929 67.1186 23.7459 67.2028C23.5674 67.2868 23.4082 67.4079 23.2785 67.5584C23.1426 67.7154 23.0367 67.8967 22.966 68.0932C22.8886 68.3123 22.8503 68.5437 22.8531 68.7764V71.8516H22.0667V66.458H22.8544V67.3659C22.945 67.2317 23.0427 67.1027 23.1472 66.9795C23.2538 66.8545 23.3761 66.7444 23.5109 66.6519C23.6528 66.5543 23.8081 66.4787 23.9717 66.4273C24.1645 66.3679 24.3651 66.3395 24.5665 66.3431C24.9451 66.3277 25.3186 66.4359 25.6326 66.6519C25.905 66.848 26.1237 67.1117 26.268 67.418C26.3647 67.2705 26.4727 67.131 26.591 67.0009" fill="#333333"/>
<path d="M36.2816 70.2418C36.1464 70.5772 35.9499 70.8835 35.7026 71.1443C35.4507 71.405 35.151 71.6126 34.8203 71.7553C34.4702 71.9057 34.0935 71.9817 33.7135 71.9786C33.3368 71.9824 32.9635 71.9064 32.6172 71.7553C32.2917 71.612 31.9962 71.4064 31.7467 71.1497C31.4992 70.8936 31.3042 70.59 31.173 70.2565C31.0345 69.9125 30.9644 69.544 30.9669 69.1722C30.9648 68.7983 31.0348 68.4276 31.173 68.0812C31.3037 67.7447 31.4988 67.4379 31.7467 67.1787C31.9961 66.918 32.2937 66.7103 32.6225 66.5677C32.9739 66.4152 33.3526 66.3387 33.7345 66.3431C34.113 66.3395 34.4881 66.4159 34.8361 66.5677C35.1637 66.7101 35.4611 66.9157 35.7118 67.1733C35.959 67.4281 36.1541 67.7303 36.2856 68.0625C36.4239 68.407 36.4939 68.7759 36.4917 69.1481C36.4928 69.5223 36.4215 69.8931 36.2816 70.2391M35.5333 68.3419C35.4381 68.0942 35.2972 67.8673 35.1184 67.6734C34.9404 67.4834 34.7282 67.33 34.4934 67.2215C34.2483 67.1091 33.9823 67.0521 33.7135 67.0544C33.4427 67.0512 33.1742 67.1063 32.9258 67.2161C32.6931 67.3185 32.4852 67.4714 32.3166 67.664C32.1458 67.8601 32.0122 68.0868 31.9227 68.3325C31.827 68.5924 31.7794 68.868 31.7822 69.1455C31.7805 69.4266 31.8309 69.7055 31.9306 69.9677C32.0242 70.215 32.1633 70.4419 32.3402 70.6362C32.5168 70.8248 32.7277 70.9764 32.9612 71.0828C33.2058 71.1953 33.4714 71.2523 33.7398 71.2499C34.0106 71.2531 34.2791 71.198 34.5275 71.0881C34.7604 70.9858 34.9697 70.8351 35.142 70.6456C35.3157 70.4535 35.4517 70.2293 35.5424 69.9851C35.6394 69.7242 35.6879 69.4472 35.6856 69.1682C35.6872 68.887 35.6369 68.6081 35.5372 68.3459" fill="#333333"/>
<path d="M38.4688 70.3189C38.4688 70.6532 38.5507 70.8863 38.7144 71.0182C38.901 71.1576 39.1291 71.2275 39.3603 71.2161C39.4897 71.2171 39.6187 71.2032 39.745 71.1746C39.878 71.1416 40.0067 71.0927 40.1284 71.0289V71.7174C39.9915 71.7939 39.8454 71.8519 39.6938 71.8899C39.5242 71.9296 39.3506 71.9488 39.1765 71.9474C38.9753 71.949 38.7749 71.9207 38.5818 71.8632C38.4046 71.813 38.2414 71.7214 38.1052 71.5958C37.9654 71.4652 37.8582 71.3024 37.7927 71.1211C37.712 70.8974 37.6737 70.6601 37.6798 70.4219V67.1662H36.9419V66.4576H37.6798V64.8291H38.4675V66.4576H40.1481V67.1676H38.4675L38.4688 70.3189Z" fill="#333333"/>
<path d="M41.0518 64.3926H41.9537V65.279H41.0518V64.3926ZM41.1043 66.4583H41.892V71.8545H41.1043V66.4583Z" fill="#333333"/>
<path d="M47.1396 66.458H47.9891L45.6836 71.8957H44.9864L42.6914 66.458H43.5619L45.3462 70.9344L47.1396 66.458Z" fill="#333333"/>
<path d="M49.0959 70.2311C49.1984 70.448 49.3411 70.6428 49.5161 70.8047C49.6834 70.9592 49.8782 71.0799 50.0898 71.1603C50.3035 71.2397 50.5293 71.28 50.7568 71.2793C51.0846 71.2885 51.4098 71.217 51.7047 71.0708C51.9731 70.9271 52.217 70.7402 52.4268 70.5172L52.9192 70.9665C52.6613 71.2659 52.3521 71.5151 52.0067 71.7018C51.6116 71.8985 51.1753 71.9936 50.7358 71.9786C50.3841 71.9811 50.0355 71.912 49.7104 71.7754C49.3951 71.6433 49.1089 71.4482 48.8688 71.2018C48.6216 70.9452 48.4262 70.6418 48.2937 70.3087C48.1488 69.9444 48.0765 69.5545 48.081 69.1615C48.0784 68.7855 48.1429 68.4122 48.2714 68.0598C48.3888 67.7294 48.567 67.4249 48.7966 67.1626C49.0213 66.9087 49.2948 66.7044 49.6001 66.5623C49.9204 66.4144 50.2685 66.3395 50.6202 66.3431C50.9825 66.3359 51.3417 66.4127 51.6706 66.5677C51.971 66.7113 52.2371 66.9198 52.4505 67.1787C52.6675 67.4464 52.8307 67.7548 52.931 68.0865C53.0429 68.4476 53.0982 68.8243 53.0951 69.2029V69.3179C53.0952 69.3627 53.0917 69.4074 53.0846 69.4516H48.8911C48.9126 69.7215 48.982 69.9852 49.0959 70.2298M52.2837 68.8647C52.2641 68.626 52.2142 68.391 52.1354 68.1654C52.0626 67.9521 51.9523 67.7541 51.8098 67.5811C51.6692 67.4128 51.4957 67.2762 51.3003 67.18C51.0822 67.075 50.8431 67.0232 50.6018 67.0289C50.3812 67.0249 50.1624 67.0706 49.9611 67.1626C49.7631 67.2555 49.5847 67.3867 49.436 67.549C49.2818 67.7189 49.1579 67.9148 49.0697 68.128C48.972 68.3603 48.91 68.6065 48.8858 68.858L52.2837 68.8647Z" fill="#333333"/>
<path d="M61.8339 71.9997L60.7074 70.8204C60.4037 71.1624 60.0427 71.4467 59.6413 71.6601C59.2437 71.8624 58.8042 71.9647 58.3598 71.9582C58.0549 71.9606 57.7518 71.9109 57.4631 71.8111C57.1993 71.7219 56.9556 71.5801 56.7462 71.394C56.5448 71.2136 56.384 70.9911 56.2749 70.7415C56.1597 70.4773 56.1019 70.1909 56.1055 69.9019C56.0944 69.4381 56.2552 68.987 56.5559 68.6384C56.9107 68.2542 57.3498 67.961 57.8373 67.7827C57.6233 67.5399 57.4407 67.2703 57.2937 66.9805C57.1777 66.7297 57.1184 66.4555 57.1204 66.1783C57.1153 65.9391 57.1605 65.7016 57.253 65.4817C57.3432 65.273 57.4741 65.0851 57.6377 64.9295C57.8104 64.7674 58.0124 64.6412 58.2325 64.5578C58.4818 64.4653 58.7457 64.42 59.011 64.4241C59.2497 64.4226 59.4864 64.468 59.7082 64.5578C59.9113 64.6392 60.0971 64.7594 60.2557 64.9121C60.4098 65.0616 60.5334 65.2407 60.6194 65.4389C60.7081 65.6425 60.7529 65.8632 60.7507 66.086C60.7587 66.3028 60.7227 66.5189 60.645 66.7209C60.5673 66.9229 60.4495 67.1064 60.299 67.2599C59.9443 67.5956 59.5211 67.8472 59.0596 67.9966L60.6995 69.6973C60.8557 69.4607 61.0067 69.2066 61.1498 68.9352C61.2929 68.6638 61.4295 68.375 61.5595 68.0688L62.2264 68.3817C62.0689 68.7306 61.9061 69.0502 61.7393 69.363C61.5765 69.6612 61.3931 69.9471 61.1905 70.2187L62.4418 71.5237L61.8339 71.9997ZM58.2889 68.2948C57.8101 68.473 57.46 68.7026 57.2386 68.9833C57.0317 69.2311 56.9161 69.5446 56.9117 69.8698C56.909 70.0599 56.9457 70.2485 57.0193 70.4233C57.0901 70.59 57.1948 70.7395 57.3265 70.8619C57.4646 70.9909 57.6267 71.0905 57.8031 71.1547C57.9967 71.2258 58.2013 71.2611 58.4071 71.2589C58.7432 71.2605 59.0737 71.1719 59.3655 71.0022C59.679 70.8186 59.961 70.5842 60.2006 70.3083L58.2889 68.2948ZM59.7135 65.3881C59.6172 65.2928 59.5031 65.2182 59.3779 65.1688C59.2527 65.1194 59.119 65.0962 58.9848 65.1006C58.8401 65.0942 58.6957 65.1178 58.5603 65.17C58.4249 65.2222 58.3013 65.3018 58.197 65.4041C58.0991 65.5038 58.0222 65.6228 57.9712 65.7539C57.9201 65.885 57.896 66.0253 57.9003 66.1662C57.8997 66.2716 57.9116 66.3766 57.9358 66.4791C57.9625 66.5845 58.0022 66.686 58.0539 66.7813C58.1184 66.9003 58.1922 67.0138 58.2745 67.1209C58.3818 67.2606 58.4961 67.3945 58.6172 67.522C58.9981 67.4068 59.351 67.2113 59.6531 66.9484C59.7654 66.844 59.8546 66.7165 59.9146 66.5742C59.9746 66.4319 60.004 66.2783 60.001 66.1234C60.0054 65.9874 59.9823 65.8519 59.9331 65.7254C59.8838 65.5989 59.8095 65.4841 59.7148 65.3881" fill="#333333"/>
<path d="M66.7692 67.2038C66.5105 67.2778 66.2584 67.3739 66.0156 67.4913L65.7793 66.8334C66.0666 66.6967 66.3654 66.5866 66.6721 66.5045C67.0105 66.4196 67.3582 66.3792 67.7067 66.3842C68.4301 66.3842 68.9881 66.5674 69.3767 66.9324C69.7654 67.2974 69.961 67.8389 69.961 68.5555V71.854H69.2008V71.0397C68.9958 71.3011 68.7441 71.5207 68.459 71.6868C68.0996 71.8861 67.6941 71.9831 67.2852 71.9676C67.0409 71.9679 66.7977 71.9328 66.5631 71.8633C66.334 71.7976 66.1187 71.6897 65.9277 71.5451C65.741 71.4053 65.5869 71.2255 65.476 71.0183C65.3585 70.7901 65.3002 70.5352 65.3066 70.2776C65.3018 70.0157 65.358 69.7563 65.4707 69.5209C65.58 69.3022 65.74 69.114 65.9368 68.9727C66.1552 68.8194 66.3983 68.7063 66.655 68.6384C66.9551 68.5593 67.2641 68.5211 67.5741 68.5248C67.8724 68.5214 68.1704 68.5419 68.4656 68.5863C68.7144 68.6276 68.9608 68.6834 69.2034 68.7534V68.5662C69.2034 68.0795 69.0651 67.7123 68.7885 67.4645C68.5128 67.2185 68.1242 67.0942 67.6253 67.0942C67.3368 67.0913 67.0493 67.1282 66.7706 67.2038M66.5172 69.4219C66.39 69.5159 66.2875 69.6403 66.2188 69.7842C66.1501 69.9281 66.1173 70.087 66.1233 70.2469C66.1197 70.4066 66.1568 70.5646 66.2309 70.7055C66.3029 70.8383 66.4018 70.9541 66.5211 71.0451C66.6491 71.141 66.7927 71.2134 66.9452 71.259C67.1094 71.3076 67.2796 71.332 67.4507 71.3312C67.6848 71.3332 67.9176 71.2962 68.14 71.2215C68.3432 71.1552 68.5334 71.0529 68.7019 70.9194C68.8582 70.7953 68.987 70.639 69.08 70.4608C69.1708 70.2778 69.2159 70.0748 69.2113 69.8698V69.3484C69.0144 69.2936 68.7872 69.2414 68.5325 69.1919C68.2442 69.141 67.952 69.1169 67.6594 69.1197C67.1618 69.1197 66.7811 69.22 66.5145 69.4219" fill="#333333"/>
<path d="M71.9186 71.8545H71.1309V66.4583H71.9186V67.8675C72.0127 67.6478 72.1331 67.4408 72.2771 67.2511C72.4177 67.0664 72.5835 66.903 72.7694 66.7658C72.9531 66.6308 73.1571 66.527 73.3734 66.4583C73.6026 66.3876 73.8417 66.356 74.081 66.3647V67.2311H74.0193C73.7406 67.2296 73.4643 67.2827 73.2053 67.3875C72.9496 67.4908 72.7198 67.6511 72.5331 67.8568C72.3324 68.0822 72.1792 68.347 72.0827 68.635C71.968 68.9792 71.9125 69.3411 71.9186 69.7046V71.8545Z" fill="#333333"/>
<path d="M78.1853 71.6831C77.7995 71.8918 77.3667 71.9937 76.9301 71.9786C76.558 71.9822 76.1893 71.9057 75.8483 71.754C75.5257 71.6115 75.2336 71.4062 74.9883 71.1497C74.7437 70.8923 74.5506 70.589 74.4198 70.2565C74.2815 69.9125 74.2115 69.5439 74.2137 69.1722C74.2116 68.7983 74.2816 68.4276 74.4198 68.0812C74.5501 67.7457 74.7432 67.4392 74.9883 67.1787C75.2326 66.9193 75.5249 66.7116 75.8483 66.5677C76.1893 66.416 76.558 66.3394 76.9301 66.3431C77.161 66.3411 77.3914 66.3658 77.6168 66.4166C77.8118 66.4614 78.0009 66.5296 78.1801 66.6198C78.3476 66.7048 78.5056 66.8079 78.6514 66.9273C78.7903 67.0441 78.9218 67.1696 79.0453 67.303L78.5201 67.8673C78.3131 67.6483 78.0807 67.4557 77.8282 67.2937C77.5508 67.1255 77.2318 67.042 76.9091 67.053C76.6511 67.051 76.3957 67.1062 76.1608 67.2148C75.9312 67.32 75.7256 67.4725 75.5568 67.6627C75.383 67.8577 75.2471 68.0846 75.1564 68.3312C75.0593 68.5921 75.0108 68.8691 75.0133 69.1481C75.0116 69.4293 75.0619 69.7082 75.1616 69.9704C75.256 70.2176 75.3954 70.4445 75.5726 70.6389C75.745 70.8296 75.9541 70.9821 76.187 71.0868C76.4304 71.1966 76.6942 71.2518 76.9603 71.2486C77.2774 71.2552 77.5905 71.1758 77.8676 71.0186C78.1318 70.865 78.3717 70.6716 78.5792 70.445L79.082 70.925C78.8226 71.2268 78.5161 71.4829 78.1748 71.6831" fill="#333333"/>
<path d="M80.6708 71.8543H79.8831V64.2332H80.6708V67.394C80.8501 67.0989 81.0875 66.8449 81.368 66.6479C81.6997 66.4288 82.0903 66.3208 82.4853 66.339C82.7775 66.3337 83.0679 66.3869 83.34 66.4955C83.5813 66.594 83.7983 66.7456 83.9755 66.9394C84.1536 67.1367 84.29 67.3693 84.3759 67.6226C84.4684 67.9052 84.5128 68.2018 84.5072 68.4997V71.8503H83.7195V68.6976C83.7195 68.1975 83.593 67.8009 83.34 67.5076C83.0871 67.2143 82.7251 67.0686 82.2542 67.0704C82.0386 67.0687 81.8247 67.1091 81.624 67.1894C81.4333 67.267 81.2606 67.3845 81.1172 67.5343C80.971 67.6873 80.8575 67.8694 80.7837 68.0691C80.703 68.2893 80.6629 68.5227 80.6656 68.7577L80.6708 71.8543Z" fill="#333333"/>
<path d="M85.7031 64.3926H86.6051V65.279H85.7031V64.3926ZM85.7543 66.4583H86.5421V71.8545H85.7543V66.4583Z" fill="#333333"/>
<path d="M88.9303 70.3189C88.9303 70.6532 89.0125 70.8863 89.1771 71.0182C89.3632 71.1578 89.5909 71.2277 89.8217 71.2161C89.9511 71.2171 90.0802 71.2032 90.2064 71.1746C90.3399 71.1416 90.469 71.0927 90.5911 71.0289V71.7174C90.4538 71.7939 90.3072 71.8519 90.1552 71.8899C89.9856 71.9296 89.812 71.9488 89.6379 71.9474C89.4367 71.949 89.2364 71.9206 89.0432 71.8632C88.8664 71.8122 88.7034 71.7207 88.5666 71.5958C88.4272 71.4648 88.3201 71.3022 88.2541 71.1211C88.1741 70.8972 88.1358 70.6601 88.1412 70.4219V67.1662H87.4033V66.4576H88.1412V64.8291H88.929V66.4576H90.6095V67.1676H88.929L88.9303 70.3189Z" fill="#333333"/>
<path d="M92.025 70.2311C92.128 70.4477 92.2706 70.6424 92.4451 70.8047C92.6128 70.9595 92.808 71.0802 93.0202 71.1603C93.2334 71.2398 93.4588 71.2801 93.6859 71.2793C94.0137 71.2887 94.339 71.2171 94.6338 71.0708C94.9024 70.9274 95.1463 70.7405 95.3559 70.5172L95.8483 70.9665C95.5885 71.2666 95.277 71.5158 94.9292 71.7018C94.5342 71.8985 94.0978 71.9936 93.6583 71.9786C93.307 71.9813 92.9588 71.9122 92.6342 71.7754C92.3183 71.6436 92.0317 71.4486 91.7913 71.2018C91.5441 70.9455 91.3491 70.642 91.2175 70.3087C91.0726 69.9444 91.0003 69.5545 91.0048 69.1615C91.0024 68.7857 91.0664 68.4125 91.1939 68.0598C91.3113 67.7294 91.4896 67.4249 91.7191 67.1627C91.9443 66.9087 92.2182 66.7044 92.5239 66.5623C92.8437 66.4144 93.1915 66.3395 93.5427 66.3431C93.905 66.3362 94.2641 66.413 94.5931 66.5677C94.8931 66.7114 95.1588 66.9199 95.3717 67.1787C95.5886 67.4466 95.7523 67.7549 95.8535 68.0865C95.9648 68.4477 96.0201 68.8244 96.0176 69.2029V69.3179C96.0171 69.3627 96.0136 69.4074 96.0071 69.4516H91.8202C91.8416 69.7215 91.911 69.9852 92.025 70.2298M95.2128 68.8647C95.1932 68.626 95.1433 68.391 95.0644 68.1654C94.9917 67.9521 94.8814 67.7541 94.7388 67.5811C94.5983 67.4128 94.4248 67.2762 94.2294 67.18C94.0118 67.075 93.773 67.0232 93.5322 67.0289C93.3112 67.0248 93.0919 67.0704 92.8902 67.1627C92.6922 67.2555 92.5138 67.3867 92.365 67.549C92.2109 67.7189 92.087 67.9148 91.9987 68.128C91.901 68.3603 91.8391 68.6065 91.8149 68.858L95.2128 68.8647Z" fill="#333333"/>
<path d="M100.537 71.6831C100.151 71.8918 99.7183 71.9937 99.2817 71.9786C98.9096 71.9822 98.5409 71.9057 98.1998 71.754C97.8773 71.6115 97.5851 71.4062 97.3399 71.1497C97.0948 70.8924 96.9013 70.5891 96.77 70.2565C96.6328 69.9122 96.5632 69.5438 96.5652 69.1722C96.5634 68.7984 96.6329 68.4279 96.77 68.0812C96.9009 67.7457 97.0944 67.4392 97.3399 67.1787C97.5841 66.9193 97.8764 66.7116 98.1998 66.5677C98.5409 66.416 98.9096 66.3394 99.2817 66.3431C99.5126 66.3411 99.7429 66.3658 99.9684 66.4166C100.163 66.4614 100.352 66.5296 100.532 66.6198C100.699 66.7048 100.857 66.8079 101.003 66.9273C101.142 67.0444 101.273 67.1699 101.397 67.303L100.872 67.8673C100.665 67.6483 100.433 67.4557 100.181 67.2937C99.9036 67.1256 99.5847 67.0421 99.262 67.053C99.004 67.051 98.7486 67.1062 98.5136 67.2148C98.2841 67.32 98.0785 67.4725 97.9097 67.6627C97.7358 67.8577 97.6 68.0846 97.5092 68.3312C97.4122 68.5921 97.3637 68.8691 97.3661 69.1481C97.3645 69.4293 97.4148 69.7082 97.5145 69.9704C97.6084 70.2176 97.7474 70.4444 97.9241 70.6389C98.0973 70.8294 98.3068 70.9818 98.5399 71.0868C98.7833 71.1967 99.047 71.2519 99.3132 71.2486C99.6303 71.255 99.9433 71.1757 100.22 71.0186C100.485 70.865 100.725 70.6716 100.932 70.445L101.435 70.925C101.175 71.2265 100.869 71.4826 100.528 71.6831" fill="#333333"/>
<path d="M103.299 70.3189C103.299 70.6532 103.381 70.8863 103.545 71.0182C103.731 71.1576 103.96 71.2275 104.191 71.2161C104.32 71.217 104.448 71.2031 104.574 71.1746C104.708 71.1416 104.837 71.0927 104.959 71.0289V71.7174C104.821 71.7939 104.675 71.8519 104.523 71.8899C104.353 71.9297 104.18 71.9489 104.006 71.9474C103.804 71.9489 103.604 71.9205 103.411 71.8632C103.234 71.8122 103.071 71.7207 102.934 71.5958C102.795 71.4644 102.688 71.3019 102.622 71.1211C102.542 70.8972 102.503 70.6601 102.509 70.4219V67.1662H101.771V66.4576H102.509V64.8291H103.297V66.4576H104.977V67.1676H103.297L103.299 70.3189Z" fill="#333333"/>
<path d="M109.621 66.458H110.401V71.8543H109.621V70.9183C109.442 71.213 109.205 71.467 108.925 71.6644C108.593 71.8827 108.203 71.9901 107.808 71.9719C107.515 71.9774 107.224 71.9243 106.952 71.8155C106.711 71.7171 106.494 71.566 106.316 71.3729C106.14 71.1748 106.006 70.9417 105.923 70.6884C105.827 70.4069 105.78 70.1105 105.783 69.8126V66.458H106.571V69.6094C106.571 70.1108 106.702 70.5079 106.951 70.7993C107.199 71.0908 107.566 71.2379 108.038 71.2379C108.253 71.2396 108.467 71.1987 108.668 71.1176C108.858 71.0415 109.029 70.9242 109.169 70.7739C109.313 70.6189 109.426 70.4374 109.503 70.2391C109.586 70.0196 109.628 69.7859 109.625 69.5506L109.621 66.458Z" fill="#333333"/>
<path d="M112.45 71.8545H111.663V66.4583H112.45V67.8675C112.544 67.6478 112.665 67.4408 112.809 67.2511C112.949 67.0664 113.115 66.903 113.301 66.7658C113.485 66.6308 113.689 66.527 113.905 66.4583C114.134 66.3876 114.373 66.356 114.613 66.3647V67.2311H114.551C114.272 67.2317 113.995 67.2871 113.736 67.3942C113.481 67.498 113.251 67.6583 113.065 67.8635C112.864 68.0886 112.71 68.3535 112.614 68.6417C112.499 68.9858 112.444 69.3477 112.45 69.7113V71.8545Z" fill="#333333"/>
<path d="M116.104 67.2038C115.846 67.2775 115.593 67.3737 115.351 67.4912L115.114 66.8334C115.401 66.6969 115.7 66.5869 116.006 66.5045C116.345 66.4197 116.693 66.3793 117.042 66.3842C117.765 66.3842 118.321 66.5669 118.712 66.9324C119.102 67.2978 119.297 67.8389 119.296 68.5555V71.8539H118.537V71.0397C118.332 71.3011 118.081 71.5206 117.795 71.6868C117.436 71.8861 117.031 71.9831 116.622 71.9676C116.377 71.9678 116.133 71.9327 115.898 71.8633C115.669 71.797 115.454 71.6892 115.263 71.5451C115.077 71.4049 114.923 71.2251 114.812 71.0183C114.695 70.7901 114.637 70.5352 114.643 70.2776C114.638 70.0157 114.694 69.7563 114.807 69.5208C114.916 69.3022 115.076 69.114 115.273 68.9727C115.492 68.8194 115.735 68.7063 115.991 68.6384C116.292 68.5592 116.601 68.521 116.911 68.5248C117.209 68.5214 117.507 68.542 117.802 68.5863C118.051 68.6276 118.297 68.6834 118.54 68.7534V68.5662C118.54 68.0795 118.402 67.7123 118.125 67.4645C117.849 67.2185 117.461 67.0941 116.962 67.0941C116.673 67.0913 116.386 67.1282 116.107 67.2038M115.854 69.4219C115.726 69.5158 115.624 69.6403 115.555 69.7842C115.487 69.9281 115.454 70.087 115.46 70.2468C115.456 70.4066 115.493 70.5646 115.567 70.7054C115.639 70.8383 115.738 70.9541 115.858 71.045C115.986 71.141 116.129 71.2134 116.282 71.259C116.446 71.3077 116.616 71.332 116.787 71.3312C117.021 71.3332 117.254 71.2962 117.476 71.2215C117.68 71.1552 117.87 71.0529 118.038 70.9194C118.195 70.7953 118.323 70.639 118.416 70.4608C118.51 70.2784 118.557 70.0754 118.554 69.8698V69.3484C118.357 69.2935 118.13 69.2414 117.876 69.1919C117.587 69.141 117.295 69.1168 117.002 69.1197C116.505 69.1197 116.124 69.22 115.858 69.4219" fill="#333333"/>
<path d="M121.326 64.2346H120.537V71.8529H121.326V64.2346Z" fill="#333333"/>
<path d="M127.965 66.4798V67.1684H126.295V71.8547H125.508V67.1684H124.78V66.4692H125.508V65.9999C125.508 65.4071 125.646 64.9583 125.923 64.6535C126.199 64.3486 126.593 64.1953 127.104 64.1935C127.264 64.1918 127.423 64.2026 127.581 64.2256C127.715 64.2462 127.847 64.2811 127.975 64.3299V65.0292C127.832 64.9864 127.702 64.9543 127.581 64.9302C127.456 64.9042 127.33 64.8916 127.203 64.8928C126.59 64.8928 126.284 65.2756 126.284 66.0413V66.4798H127.965Z" fill="#333333"/>
<path d="M128.478 64.3926H129.38V65.279H128.478V64.3926ZM128.529 66.4583H129.317V71.8545H128.529V66.4583Z" fill="#333333"/>
<path d="M131.501 64.2346H130.712V71.8529H131.501V64.2346Z" fill="#333333"/>
<path d="M137.342 67.0009C137.462 66.8686 137.598 66.7526 137.747 66.6559C137.905 66.5558 138.076 66.4789 138.255 66.4273C138.46 66.3687 138.672 66.3404 138.885 66.3431C139.498 66.3431 139.979 66.536 140.329 66.922C140.679 67.3079 140.854 67.8387 140.854 68.5144V71.8569H140.067V68.7042C140.067 68.1828 139.945 67.7817 139.703 67.5009C139.576 67.3585 139.42 67.2467 139.245 67.1737C139.07 67.1006 138.882 67.068 138.693 67.0784C138.5 67.0772 138.309 67.1144 138.13 67.1881C137.954 67.2602 137.795 67.3706 137.664 67.5116C137.525 67.6637 137.416 67.8429 137.346 68.0384C137.264 68.2656 137.224 68.5063 137.228 68.7484V71.8583H136.45V68.6855C136.45 68.1774 136.328 67.7826 136.086 67.5009C135.961 67.3592 135.806 67.2478 135.633 67.1747C135.46 67.1016 135.274 67.0687 135.087 67.0784C134.885 67.0762 134.686 67.1186 134.502 67.2028C134.324 67.2869 134.166 67.408 134.036 67.5584C133.9 67.715 133.794 67.8965 133.724 68.0932C133.646 68.3121 133.608 68.5436 133.611 68.7764V71.8516H132.823V66.458H133.611V67.3659C133.701 67.2317 133.798 67.1027 133.902 66.9795C134.009 66.8545 134.131 66.7444 134.266 66.6519C134.409 66.5543 134.564 66.4787 134.728 66.4273C134.921 66.368 135.121 66.3396 135.322 66.3431C135.7 66.3275 136.074 66.4357 136.388 66.6519C136.661 66.8473 136.88 67.1112 137.023 67.418C137.12 67.2708 137.228 67.1313 137.346 67.0009" fill="#333333"/>
<path d="M0 45.9879L5.77692 44.0906C6.66972 46.3288 8.08638 46.8222 9.20369 46.8222C10.2462 46.8222 11.2151 46.4425 11.2151 45.4571C11.2151 44.2805 9.8746 43.8633 8.79405 43.5224L6.48459 42.8017C3.69066 41.9287 0.97026 40.1839 0.97026 36.4282C0.97026 32.3315 4.2526 29.4863 9.1643 29.4863C13.56 29.4863 16.5036 31.8007 17.3596 34.9106L11.6589 36.8079C11.2492 35.6313 10.5416 34.5697 9.05139 34.5697C7.93408 34.5697 7.18964 35.1767 7.18964 36.011C7.18964 37.1488 8.90302 37.6422 10.43 38.0968L11.8834 38.5139C13.82 39.0835 17.8428 40.1838 17.8428 44.9316C17.8428 49.3331 14.5276 51.9884 9.2759 51.9884C4.28674 51.9884 0.930872 49.5978 0 45.9946" fill="black"/>
<path d="M21.1582 30.0914H27.3054V32.7841H27.3789C29.242 30.4323 31.1785 29.4844 33.6377 29.4844C39.3739 29.4844 42.5407 34.6052 42.5407 40.599C42.5407 47.8444 37.9585 51.9798 33.1532 51.9798C30.2109 51.9798 28.3846 50.4623 27.3763 49.0958V59.6797H21.1582V30.0914ZM31.7011 45.9097C34.3086 45.9097 36.1336 43.7477 36.1336 40.7501C36.1336 37.7164 34.3086 35.5531 31.7011 35.5531C29.0555 35.5531 27.2371 37.7164 27.2371 40.7501C27.2371 43.7477 29.0621 45.9097 31.7076 45.9097" fill="black"/>
<path d="M44.7381 40.8283C44.7381 34.3424 49.0958 29.4863 55.2797 29.4863C60.9424 29.4863 65.5206 33.5068 65.5206 41.0556V42.5731H50.9221C51.4801 45.1134 53.5296 46.2914 55.6893 46.2914C57.2544 46.2914 58.8561 45.5319 59.6754 43.636L65.5245 46.0641C64.2208 49.2114 60.7573 51.9817 55.7655 51.9817C49.5067 51.9817 44.7368 47.619 44.7368 40.8283M59.3012 38.4003C58.8168 35.9348 57.2898 34.8732 55.2416 34.8732C53.0438 34.8732 51.74 36.3519 51.2188 38.4003H59.3012Z" fill="black"/>
<path d="M67.7565 40.7521C67.7565 33.7728 72.4831 29.4863 78.5594 29.4863C83.3267 29.4863 87.1644 32.1417 88.5797 36.3145L82.7687 38.7425C82.0229 36.3519 80.2741 35.5551 78.5594 35.5551C75.9519 35.5551 74.1637 37.7933 74.1637 40.7146C74.1637 43.977 76.3615 45.9117 78.7826 45.9117C80.4894 45.9117 82.2474 45.0011 83.1034 42.7255L88.9513 45.1536C87.5359 49.3264 83.6995 51.9817 78.7826 51.9817C72.5986 51.9817 67.7539 47.7701 67.7539 40.7507" fill="black"/>
<path d="M93.9839 44.4337V35.8594H89.8862V30.0915H93.9839V24.1738H100.205V30.0915H105.569V35.8567H100.205V42.0779C100.205 43.9377 100.205 46.2133 102.999 46.2133C104.004 46.2133 104.898 45.9098 105.568 45.6437V51.2592C104.525 51.794 103.147 51.9799 101.695 51.9799C93.9839 51.9799 93.9839 46.5168 93.9839 44.4311" fill="black"/>
<path d="M108.995 30.0907H115.142V32.9734H115.285C116.335 31.2285 118.117 29.4837 120.836 29.4837C121.486 29.4764 122.132 29.5915 122.741 29.8233V36.955C121.92 36.6987 121.066 36.5707 120.207 36.5753C115.218 36.5753 115.218 41.2041 115.218 43.8968V51.332H108.995V30.0907Z" fill="black"/>
<path d="M123.896 45.5319C123.896 41.5877 126.839 39.994 130.341 39.2359C135.33 38.1355 136.38 37.9457 136.38 36.6554C136.38 35.404 135.375 34.6071 133.773 34.6071C132.319 34.6071 130.904 35.3278 130.271 37.566L124.494 35.5938C125.836 31.048 129.746 29.4863 133.993 29.4863C139.656 29.4863 142.636 32.2553 142.636 37.1862V44.6976C142.636 48.1498 142.899 49.6674 143.306 51.336H137.119C136.857 50.6541 136.785 49.9321 136.785 49.1366H136.71C135.667 50.9576 133.358 51.9817 131.048 51.9817C127.472 51.9817 123.896 49.8946 123.896 45.5319ZM132.948 47.1631C135.108 47.1631 136.412 45.4571 136.412 43.5224V42.2322C135.369 42.5357 133.208 43.0665 132.65 43.2189C131.31 43.5973 130.712 44.3567 130.712 45.3421C130.712 46.6323 131.719 47.1631 132.944 47.1631" fill="black"/>
<path d="M169.542 29.5896V5.02052L195 -7.62939e-06C194.921 9.85251 194.843 19.6542 194.762 29.5896H169.542Z" fill="#FF0000"/>
<path d="M147.083 9.4456L163.889 6.13379V29.7657H147.087C147.087 22.634 147.087 18.7392 147.087 9.44292" fill="#FF0000"/>
<path d="M172.541 34.8615V59.4307L147.088 64.4525C147.096 64.4525 147.105 34.8722 147.105 34.8642L172.541 34.8615Z" fill="#FF0000"/>
<path d="M194.481 35.172C194.481 38.2726 194.481 40.7742 194.481 43.4335C194.481 46.5394 194.481 49.8592 194.481 54.595L186.866 56.0964L178.642 57.7169V35.172H194.481ZM194.963 34.6813H178.166V58.3025L194.971 54.9907C194.971 45.6984 194.971 41.8037 194.971 34.668" fill="#FF0000"/>
<path d="M194.972 55.0252L178.198 58.3142L178.187 34.6944H185.112L194.991 45.4026L194.972 55.0252Z" fill="#FF0000"/>
<path d="M194.502 45.0987H185.244V35.1699" stroke="white" stroke-miterlimit="10"/>
</g>
<defs>
<clipPath id="clip0_176_902">
<rect width="195" height="72" fill="white"/>
</clipPath>
</defs>
</svg>
