<svg width="35" height="53" viewBox="0 0 35 53" fill="none" xmlns="http://www.w3.org/2000/svg">
<g clip-path="url(#clip0_662_1584)">
<path d="M16.2148 21.7813V3.69567L34.9999 0C34.9418 7.25255 34.8837 14.4677 34.8246 21.7813H16.2148Z" fill="#FF0000"/>
<path d="M-0.357605 6.95348L12.0431 4.51562V21.9113H-0.354696C-0.354696 16.6616 -0.354696 13.7946 -0.354696 6.95151" fill="#FF0000"/>
<path d="M18.4274 25.6616V43.7472L-0.353821 47.4439C-0.348008 47.4439 -0.341226 25.6695 -0.341226 25.6636L18.4274 25.6616Z" fill="#FF0000"/>
<path d="M34.6172 25.8901C34.6172 28.1724 34.6172 30.0139 34.6172 31.9714C34.6172 34.2577 34.6172 36.7015 34.6172 40.1875L28.9981 41.2928L22.9296 42.4856V25.8901H34.6172ZM34.9728 25.5289H22.5779V42.9167L34.9786 40.4788C34.9786 33.6387 34.9786 30.7717 34.9786 25.519" fill="#FF0000"/>
<path d="M34.9796 40.5043L22.6021 42.9254L22.5934 25.5386H27.7038L34.9931 33.421L34.9796 40.5043Z" fill="#FF0000"/>
<path d="M34.6327 33.1978H27.8007V25.8892" stroke="white" stroke-miterlimit="10"/>
</g>
<defs>
<clipPath id="clip0_662_1584">
<rect width="35" height="53" fill="white"/>
</clipPath>
</defs>
</svg>
