<svg width="250" height="93" viewBox="0 0 250 93" fill="none" xmlns="http://www.w3.org/2000/svg">
<g clip-path="url(#clip0_176_971)">
<path d="M2.97249 85.9384C2.64087 86.0332 2.31767 86.156 2.0063 86.3057L1.705 85.4651C2.07275 85.2905 2.45528 85.1498 2.84793 85.0449C3.28182 84.9366 3.72755 84.8849 4.17433 84.8911C5.10349 84.8911 5.81775 85.1246 6.31711 85.5916C6.81648 86.0585 7.0656 86.7499 7.06448 87.6656V91.8803H6.09324V90.8398C5.82979 91.1739 5.50655 91.4544 5.14052 91.6667C4.67976 91.9213 4.15994 92.0452 3.63569 92.0255C3.32243 92.0258 3.01072 91.9809 2.7099 91.8922C2.4162 91.8082 2.1401 91.6704 1.89521 91.4856C1.65639 91.307 1.45927 91.0772 1.31785 90.8125C1.16721 90.5209 1.09247 90.1951 1.10071 89.866C1.09362 89.5313 1.16578 89.1997 1.31112 88.8991C1.45064 88.6193 1.65587 88.3788 1.90867 88.1986C2.18789 88.0025 2.49901 87.8579 2.82773 87.7715C3.21247 87.6706 3.60866 87.6218 4.00601 87.6263C4.38842 87.6221 4.77057 87.6484 5.14893 87.7049C5.46797 87.7579 5.78381 87.8292 6.09492 87.9184V87.6793C6.09492 87.0574 5.91762 86.5882 5.56301 86.2715C5.20785 85.9572 4.71129 85.7983 4.07165 85.7983C3.70127 85.7945 3.33209 85.8416 2.97417 85.9384M2.65099 88.7726C2.48805 88.8928 2.35676 89.0518 2.26869 89.2356C2.18062 89.4195 2.13849 89.6225 2.14601 89.8267C2.14199 90.0308 2.18951 90.2326 2.28404 90.4127C2.37679 90.5827 2.50419 90.7306 2.65772 90.8467C2.82168 90.9696 3.00573 91.0621 3.20141 91.12C3.41192 91.1823 3.6302 91.2134 3.84946 91.2123C4.14958 91.2146 4.44806 91.1673 4.73317 91.0722C4.99358 90.9869 5.23737 90.8562 5.4536 90.6861C5.65397 90.5275 5.81916 90.3278 5.93838 90.1001C6.05769 89.867 6.11841 89.6076 6.11512 89.345V88.6787C5.86095 88.6086 5.57143 88.542 5.2432 88.4788C4.8736 88.4137 4.49894 88.3828 4.12383 88.3865C3.48756 88.3865 2.99774 88.5147 2.65772 88.7726" fill="white"/>
<path d="M13.3851 84.9854H14.3833V91.8805H13.3851V90.6846C13.1548 91.0612 12.8505 91.3857 12.4913 91.6379C12.0659 91.9172 11.565 92.0546 11.0589 92.0309C10.6835 92.0339 10.3111 91.9619 9.96308 91.819C9.65355 91.6942 9.37527 91.501 9.14838 91.2535C8.91958 91.0011 8.74478 90.7032 8.63499 90.3788C8.51348 90.0188 8.4537 89.6403 8.45825 89.2598V84.9854H9.4682V89.0121C9.4682 89.6533 9.63035 90.1601 9.95466 90.5326C10.279 90.905 10.743 91.0918 11.3467 91.0929C11.6233 91.0954 11.8977 91.0432 12.1547 90.9392C12.4005 90.8432 12.6224 90.6933 12.8044 90.5001C12.989 90.3025 13.1342 90.0704 13.232 89.8168C13.3402 89.5366 13.3939 89.2378 13.3902 88.9369L13.3851 84.9854Z" fill="white"/>
<path d="M17.3663 89.9188C17.3663 90.3459 17.4712 90.6438 17.6811 90.8123C17.9204 90.9905 18.2128 91.0797 18.5092 91.0652C18.6751 91.0665 18.8405 91.0488 19.0024 91.0122C19.1729 90.97 19.3379 90.9075 19.4939 90.826V91.7058C19.3184 91.8035 19.1311 91.8776 18.9368 91.9262C18.7193 91.9769 18.4967 92.0015 18.2736 91.9997C18.0156 92.0018 17.7587 91.9655 17.5111 91.892C17.284 91.8279 17.0748 91.7109 16.9001 91.5504C16.7241 91.383 16.5897 91.1758 16.5079 90.9456C16.4044 90.6597 16.3553 90.3565 16.3631 90.0521V85.8921H15.4087V84.9849H16.3547V82.9041H17.3646V84.9849H19.5209V85.8921H17.3663V89.9188Z" fill="white"/>
<path d="M26.8463 89.8198C26.6725 90.2486 26.42 90.6399 26.1023 90.973C25.7797 91.3065 25.3953 91.5718 24.9712 91.7538C24.5223 91.946 24.0394 92.0431 23.5522 92.0391C23.0693 92.044 22.5906 91.9468 22.1467 91.7538C21.7293 91.5707 21.3505 91.308 21.0307 90.9799C20.7134 90.6527 20.4633 90.2648 20.2951 89.8386C20.1175 89.3991 20.0277 88.9282 20.0308 88.4531C20.0282 87.9753 20.118 87.5017 20.2951 87.059C20.4627 86.629 20.7128 86.2371 21.0307 85.9059C21.3504 85.5728 21.732 85.3074 22.1534 85.1251C22.6034 84.9305 23.0883 84.8327 23.5775 84.8381C24.0627 84.8333 24.5437 84.931 24.9897 85.1251C25.4097 85.3071 25.791 85.5699 26.1124 85.899C26.4305 86.2246 26.6822 86.6107 26.8531 87.0351C27.0283 87.477 27.1163 87.9495 27.1123 88.4258C27.1138 88.9039 27.0222 89.3777 26.843 89.8198M25.8835 87.3956C25.7615 87.0791 25.5809 86.7891 25.3516 86.5414C25.1234 86.2986 24.8514 86.1026 24.5504 85.9639C24.2362 85.8203 23.8951 85.7475 23.5505 85.7504C23.2033 85.7463 22.8591 85.8168 22.5406 85.9571C22.2436 86.0862 21.9777 86.2791 21.7612 86.5226C21.5422 86.7731 21.371 87.0628 21.2562 87.3768C21.1318 87.7102 21.0696 88.0642 21.0728 88.4206C21.0706 88.7799 21.1352 89.1363 21.263 89.4713C21.383 89.7877 21.5619 90.0777 21.7898 90.3255C22.0155 90.5665 22.2854 90.7603 22.5843 90.8961C22.8966 91.0379 23.2354 91.1095 23.5775 91.1063C23.9247 91.1106 24.2689 91.0401 24.5874 90.8996C24.8859 90.7688 25.1542 90.5762 25.3752 90.3341C25.5979 90.0887 25.7722 89.8022 25.8886 89.4901C26.0128 89.1567 26.075 88.8028 26.072 88.4463C26.0742 88.087 26.0096 87.7306 25.8818 87.3956" fill="white"/>
<path d="M34.086 85.6783C34.2385 85.5085 34.4129 85.3602 34.6044 85.2375C34.8062 85.1093 35.025 85.011 35.2541 84.9454C35.517 84.8706 35.7891 84.8343 36.0621 84.8378C36.8515 84.8378 37.4676 85.0855 37.9137 85.5775C38.3597 86.0695 38.587 86.7495 38.587 87.6122V91.8833H37.577V87.8548C37.577 87.1886 37.4216 86.676 37.1108 86.3173C36.9481 86.1353 36.7475 85.9925 36.5236 85.8991C36.2997 85.8057 36.0581 85.7641 35.8163 85.7774C35.5689 85.7758 35.3236 85.8234 35.0942 85.9175C34.8671 86.0092 34.6626 86.1503 34.495 86.3309C34.3166 86.5254 34.1787 86.7543 34.0893 87.004C33.9843 87.2944 33.9329 87.6019 33.9378 87.9112V91.885H32.938V87.8309C32.938 87.1817 32.7826 86.6772 32.4717 86.3173C32.3113 86.1361 32.113 85.9936 31.8914 85.9002C31.6698 85.8068 31.4304 85.7649 31.1908 85.7774C30.9332 85.7745 30.6782 85.8287 30.4434 85.9363C30.2146 86.0437 30.0105 86.1985 29.8442 86.3907C29.67 86.5913 29.5341 86.823 29.4436 87.0741C29.3443 87.354 29.2953 87.6497 29.2988 87.9471V91.8765H28.2905V84.9847H29.3005V86.1447C29.4166 85.9733 29.5419 85.8085 29.6758 85.651C29.8125 85.4913 29.9693 85.3506 30.1421 85.2324C30.3241 85.1078 30.5231 85.011 30.7329 84.9454C30.98 84.8695 31.2373 84.8332 31.4954 84.8378C31.9808 84.8181 32.4597 84.9564 32.8622 85.2324C33.2115 85.483 33.4919 85.8199 33.6769 86.2113C33.8008 86.0228 33.9393 85.8446 34.091 85.6783" fill="white"/>
<path d="M46.5151 89.8199C46.3417 90.2484 46.0898 90.6398 45.7727 90.973C45.4498 91.3061 45.0655 91.5714 44.6416 91.7538C44.1927 91.946 43.7098 92.0431 43.2226 92.0391C42.7397 92.044 42.261 91.9468 41.8171 91.7538C41.3997 91.5707 41.0209 91.308 40.7011 90.9799C40.3838 90.6527 40.1337 90.2648 39.9655 89.8386C39.7879 89.3991 39.6981 88.9282 39.7013 88.4531C39.6986 87.9754 39.7884 87.5017 39.9655 87.0591C40.1331 86.6291 40.3832 86.2371 40.7011 85.9059C41.0208 85.5728 41.4024 85.3074 41.8238 85.1251C42.2744 84.9303 42.7599 84.8325 43.2495 84.8381C43.7348 84.8335 44.2157 84.9313 44.6618 85.1251C45.0818 85.3071 45.463 85.5699 45.7845 85.899C46.1015 86.2245 46.3515 86.6107 46.5201 87.0351C46.6974 87.4754 46.7872 87.9468 46.7844 88.4224C46.7858 88.9005 46.6943 89.3743 46.5151 89.8165M45.5556 87.3922C45.4336 87.0757 45.253 86.7857 45.0237 86.538C44.7955 86.2952 44.5235 86.0992 44.2225 85.9605C43.9083 85.8169 43.5672 85.7441 43.2226 85.747C42.8754 85.7429 42.5312 85.8133 42.2127 85.9537C41.9144 86.0846 41.6479 86.2799 41.4316 86.526C41.2127 86.7766 41.0414 87.0662 40.9267 87.3802C40.804 87.7122 40.7429 88.0644 40.7466 88.419C40.7444 88.7782 40.8089 89.1346 40.9368 89.4696C41.0569 89.7856 41.2351 90.0755 41.4619 90.3238C41.6883 90.5647 41.9587 90.7585 42.2581 90.8945C42.5717 91.0382 42.9122 91.1111 43.2563 91.108C43.6035 91.1121 43.9477 91.0417 44.2662 90.9013C44.5648 90.7705 44.8331 90.5779 45.054 90.3358C45.2767 90.0904 45.451 89.8039 45.5674 89.4918C45.6917 89.1584 45.7539 88.8045 45.7509 88.448C45.753 88.0888 45.6885 87.7323 45.5607 87.3973" fill="white"/>
<path d="M49.3194 89.9188C49.3194 90.3459 49.4244 90.6438 49.6342 90.8123C49.8735 90.9905 50.1659 91.0797 50.4624 91.0652C50.6282 91.0665 50.7937 91.0488 50.9556 91.0122C51.1261 90.97 51.291 90.9075 51.4471 90.826V91.7058C51.2716 91.8035 51.0843 91.8776 50.8899 91.9262C50.6724 91.9769 50.4498 92.0015 50.2267 91.9997C49.9687 92.0018 49.7118 91.9655 49.4642 91.892C49.2371 91.8279 49.0279 91.7109 48.8532 91.5504C48.6739 91.3835 48.5366 91.1755 48.4526 90.9439C48.3491 90.658 48.3 90.3548 48.3078 90.0504V85.8904H47.3618V84.9849H48.3078V82.9041H49.3178V84.9849H51.4723V85.8921H49.3178L49.3194 89.9188Z" fill="white"/>
<path d="M52.6304 82.3455H53.7868V83.4781H52.6304V82.3455ZM52.6977 84.985H53.7077V91.8801H52.6977V84.985Z" fill="white"/>
<path d="M60.4353 84.9854H61.5243L58.5686 91.9335H57.6747L54.7324 84.9854H55.8484L58.136 90.7051L60.4353 84.9854Z" fill="white"/>
<path d="M62.9435 89.8066C63.0749 90.0837 63.2578 90.3326 63.4821 90.5395C63.6968 90.7369 63.9464 90.8911 64.2177 90.9939C64.4917 91.0953 64.7812 91.1467 65.0728 91.146C65.4931 91.1577 65.9101 91.0663 66.2881 90.8794C66.6323 90.6959 66.9449 90.457 67.2139 90.1722L67.8451 90.7462C67.5146 91.1288 67.1182 91.4472 66.6753 91.6858C66.1688 91.9371 65.6093 92.0586 65.0459 92.0395C64.595 92.0427 64.148 91.9544 63.7313 91.7798C63.327 91.611 62.9602 91.3618 62.6523 91.0469C62.3354 90.719 62.0849 90.3313 61.915 89.9056C61.7292 89.4402 61.6365 88.942 61.6423 88.4398C61.6389 87.9594 61.7216 87.4824 61.8864 87.0321C62.0369 86.61 62.2655 86.2209 62.5597 85.8857C62.8478 85.5613 63.1984 85.3002 63.5899 85.1187C64.0005 84.9296 64.4469 84.834 64.8978 84.8385C65.3623 84.8293 65.8227 84.9274 66.2444 85.1255C66.6295 85.3091 66.9707 85.5755 67.2442 85.9062C67.5224 86.2483 67.7317 86.6424 67.8603 87.0663C68.0037 87.5276 68.0747 88.009 68.0707 88.4928V88.6397C68.0708 88.6969 68.0663 88.7541 68.0572 88.8106H62.6809C62.7084 89.1554 62.7974 89.4923 62.9435 89.8049M67.0304 88.0606C67.0053 87.7556 66.9414 87.4553 66.8402 87.1671C66.747 86.8945 66.6055 86.6415 66.4228 86.4205C66.2426 86.2054 66.0202 86.0308 65.7697 85.908C65.4901 85.7737 65.1834 85.7076 64.8742 85.7149C64.5913 85.7097 64.3108 85.7681 64.0528 85.8857C63.7989 86.0044 63.5702 86.1721 63.3795 86.3795C63.1818 86.5966 63.0229 86.8469 62.9098 87.1192C62.7846 87.416 62.7051 87.7307 62.6742 88.052L67.0304 88.0606Z" fill="white"/>
<path d="M79.2744 92.066L77.8302 90.5591C77.4408 90.9962 76.978 91.3595 76.4634 91.632C75.9537 91.8906 75.3903 92.0213 74.8205 92.013C74.4296 92.016 74.041 91.9525 73.6709 91.8251C73.3327 91.7111 73.0202 91.5299 72.7518 91.2921C72.4935 91.0616 72.2874 90.7772 72.1475 90.4583C71.9998 90.1208 71.9257 89.7548 71.9304 89.3855C71.9161 88.7928 72.1223 88.2164 72.5077 87.771C72.9627 87.2801 73.5256 86.9054 74.1506 86.6776C73.8763 86.3674 73.6421 86.0229 73.4537 85.6526C73.3049 85.3321 73.229 84.9818 73.2315 84.6275C73.225 84.3219 73.283 84.0184 73.4015 83.7374C73.5172 83.4708 73.6849 83.2307 73.8947 83.0319C74.1161 82.8248 74.3751 82.6635 74.6572 82.5569C74.9769 82.4387 75.3152 82.3808 75.6554 82.3861C75.9614 82.3841 76.2649 82.4421 76.5492 82.5569C76.8096 82.6609 77.0478 82.8146 77.2511 83.0097C77.4486 83.2007 77.6071 83.4295 77.7174 83.6828C77.8312 83.943 77.8886 84.225 77.8857 84.5096C77.896 84.7866 77.8499 85.0628 77.7503 85.3209C77.6506 85.579 77.4996 85.8134 77.3067 86.0096C76.8519 86.4385 76.3093 86.76 75.7177 86.951L77.8201 89.1241C78.0204 88.8217 78.214 88.4971 78.3974 88.1503C78.5809 87.8035 78.756 87.4344 78.9226 87.0432L79.7777 87.443C79.5757 87.8889 79.367 88.2972 79.1532 88.697C78.9445 89.0779 78.7094 89.4433 78.4496 89.7904L80.0538 91.4578L79.2744 92.066ZM74.7296 87.3319C74.1158 87.5597 73.6669 87.853 73.383 88.2118C73.1178 88.5284 72.9696 88.9289 72.9639 89.3445C72.9605 89.5874 73.0075 89.8284 73.1019 90.0517C73.1926 90.2647 73.3269 90.4557 73.4958 90.6121C73.6728 90.777 73.8806 90.9042 74.1068 90.9863C74.355 91.0772 74.6173 91.1223 74.8811 91.1195C75.312 91.1215 75.7357 91.0083 76.1099 90.7915C76.5118 90.5569 76.8734 90.2574 77.1804 89.9048L74.7296 87.3319ZM76.556 83.6178C76.4325 83.4961 76.2862 83.4008 76.1257 83.3377C75.9652 83.2745 75.7938 83.2449 75.6217 83.2505C75.4363 83.2424 75.2512 83.2725 75.0775 83.3392C74.9039 83.4059 74.7455 83.5076 74.6118 83.6383C74.4862 83.7657 74.3877 83.9178 74.3222 84.0853C74.2568 84.2528 74.2259 84.4321 74.2314 84.6121C74.2306 84.7468 74.2458 84.881 74.2768 85.0119C74.3111 85.1466 74.362 85.2763 74.4283 85.398C74.511 85.5501 74.6056 85.6952 74.7111 85.832C74.8486 86.0105 74.9953 86.1816 75.1504 86.3445C75.6388 86.1973 76.0913 85.9476 76.4785 85.6116C76.6226 85.4782 76.7369 85.3152 76.8138 85.1335C76.8907 84.9517 76.9285 84.7553 76.9246 84.5575C76.9303 84.3837 76.9006 84.2105 76.8375 84.0489C76.7744 83.8872 76.6791 83.7405 76.5576 83.6178" fill="white"/>
<path d="M85.6018 85.9384C85.2701 86.0329 84.9469 86.1558 84.6356 86.3057L84.3327 85.4652C84.701 85.2905 85.0841 85.1498 85.4773 85.0449C85.9111 84.9364 86.3569 84.8848 86.8037 84.8912C87.7311 84.8912 88.4465 85.1252 88.9448 85.5916C89.443 86.058 89.6938 86.7499 89.6938 87.6656V91.8803H88.7192V90.8399C88.4564 91.1739 88.1337 91.4544 87.7682 91.6667C87.3074 91.9213 86.7876 92.0453 86.2634 92.0255C85.9501 92.0259 85.6384 91.981 85.3376 91.8922C85.0439 91.8082 84.7678 91.6704 84.5229 91.4856C84.2836 91.307 84.086 91.0772 83.9438 90.8125C83.7932 90.521 83.7184 90.1952 83.7267 89.8661C83.7204 89.5314 83.7926 89.2 83.9371 88.8991C84.0771 88.6197 84.2823 88.3793 84.5347 88.1986C84.8147 88.0028 85.1263 87.8583 85.4554 87.7715C85.8401 87.6705 86.2363 87.6217 86.6337 87.6263C87.0161 87.622 87.3982 87.6483 87.7766 87.7049C88.0957 87.7578 88.4115 87.8291 88.7226 87.9185V87.6793C88.7226 87.0574 88.5453 86.5882 88.1907 86.2716C87.8372 85.9572 87.3389 85.7983 86.6993 85.7983C86.3295 85.7946 85.9609 85.8418 85.6035 85.9384M85.2786 88.7727C85.1156 88.8927 84.9842 89.0517 84.8961 89.2356C84.8081 89.4194 84.766 89.6225 84.7737 89.8268C84.7691 90.0309 84.8167 90.2328 84.9117 90.4128C85.004 90.5826 85.1308 90.7305 85.2837 90.8467C85.4479 90.9693 85.6319 91.0618 85.8274 91.12C86.0379 91.1822 86.2562 91.2133 86.4754 91.2123C86.7756 91.2149 87.0741 91.1676 87.3592 91.0722C87.6197 90.9874 87.8636 90.8567 88.0796 90.6861C88.28 90.5275 88.4451 90.3279 88.5644 90.1001C88.6808 89.8663 88.7386 89.6069 88.7327 89.345V88.6787C88.4802 88.6087 88.189 88.542 87.8624 88.4788C87.4928 88.4138 87.1182 88.3829 86.7431 88.3866C86.1051 88.3866 85.617 88.5147 85.2753 88.7727" fill="white"/>
<path d="M92.2033 91.8799H91.1934V84.9847H92.2033V86.7854C92.3239 86.5046 92.4782 86.24 92.6628 85.9978C92.8432 85.7617 93.0557 85.5529 93.2941 85.3776C93.5296 85.2051 93.7911 85.0724 94.0684 84.9847C94.3622 84.8943 94.6688 84.8539 94.9756 84.8651V85.9722H94.8965C94.5392 85.9702 94.1849 86.0381 93.8529 86.172C93.525 86.3039 93.2305 86.5089 92.9911 86.7717C92.7338 87.0597 92.5373 87.3981 92.4137 87.766C92.2666 88.2059 92.1954 88.6683 92.2033 89.1327V91.8799Z" fill="white"/>
<path d="M100.238 91.6615C99.7433 91.9282 99.1884 92.0583 98.6287 92.039C98.1516 92.0437 97.6789 91.9459 97.2417 91.752C96.8282 91.5699 96.4536 91.3076 96.1392 90.9798C95.8256 90.651 95.578 90.2634 95.4103 89.8386C95.233 89.399 95.1432 88.9281 95.1461 88.4531C95.1434 87.9753 95.2332 87.5016 95.4103 87.059C95.5774 86.6303 95.825 86.2387 96.1392 85.9058C96.4524 85.5743 96.8271 85.309 97.2417 85.1251C97.6789 84.9312 98.1516 84.8334 98.6287 84.838C98.9247 84.8356 99.22 84.8671 99.5091 84.932C99.759 84.9893 100.001 85.0764 100.231 85.1917C100.446 85.3002 100.649 85.432 100.835 85.5846C101.013 85.7338 101.182 85.8941 101.34 86.0647L100.667 86.7856C100.402 86.5059 100.104 86.2598 99.7801 86.0527C99.4244 85.8378 99.0154 85.7311 98.6018 85.7452C98.271 85.7426 97.9436 85.8131 97.6423 85.9519C97.3481 86.0864 97.0844 86.2813 96.868 86.5243C96.6452 86.7734 96.4709 87.0633 96.3546 87.3785C96.2302 87.7118 96.168 88.0658 96.1712 88.4223C96.169 88.7815 96.2336 89.138 96.3614 89.473C96.4823 89.7889 96.6611 90.0787 96.8882 90.3272C97.1093 90.5709 97.3774 90.7657 97.676 90.8995C97.988 91.0398 98.3262 91.1103 98.6674 91.1062C99.0739 91.1146 99.4754 91.0132 99.8306 90.8124C100.169 90.6161 100.477 90.369 100.743 90.0795L101.388 90.6928C101.055 91.0784 100.662 91.4057 100.224 91.6615" fill="white"/>
<path d="M103.424 91.8806H102.414V82.1426H103.424V86.1813C103.654 85.8043 103.958 85.4797 104.318 85.228C104.743 84.9481 105.244 84.8101 105.75 84.8333C106.125 84.8265 106.497 84.8944 106.846 85.0332C107.155 85.1591 107.434 85.3528 107.661 85.6004C107.889 85.8525 108.064 86.1497 108.174 86.4734C108.293 86.8346 108.35 87.2136 108.342 87.5941V91.8754H107.333V87.847C107.333 87.208 107.17 86.7012 106.846 86.3265C106.522 85.9518 106.058 85.7656 105.454 85.7678C105.178 85.7657 104.903 85.8173 104.646 85.9199C104.401 86.0191 104.18 86.1693 103.996 86.3607C103.809 86.5561 103.663 86.7888 103.569 87.044C103.465 87.3253 103.414 87.6236 103.417 87.9239L103.424 91.8806Z" fill="white"/>
<path d="M109.876 82.3455H111.032V83.4781H109.876V82.3455ZM109.942 84.985H110.952V91.8801H109.942V84.985Z" fill="white"/>
<path d="M114.013 89.9188C114.013 90.3459 114.119 90.6438 114.33 90.8123C114.568 90.9907 114.86 91.08 115.156 91.0652C115.322 91.0665 115.488 91.0488 115.649 91.0122C115.82 90.97 115.986 90.9075 116.143 90.826V91.7058C115.966 91.8035 115.779 91.8776 115.584 91.9262C115.366 91.9769 115.144 92.0015 114.921 91.9997C114.663 92.0016 114.406 91.9654 114.158 91.892C113.931 91.8269 113.722 91.71 113.547 91.5504C113.368 91.383 113.231 91.1752 113.146 90.9439C113.044 90.6578 112.995 90.3547 113.002 90.0504V85.8904H112.056V84.9849H113.002V82.9041H114.012V84.9849H116.166V85.8921H114.012L114.013 89.9188Z" fill="white"/>
<path d="M117.981 89.8065C118.113 90.0833 118.296 90.3321 118.52 90.5394C118.735 90.7372 118.985 90.8915 119.257 90.9938C119.53 91.0954 119.819 91.1468 120.11 91.1459C120.531 91.1578 120.948 91.0664 121.326 90.8794C121.67 90.6962 121.983 90.4573 122.251 90.1721L122.883 90.7461C122.55 91.1296 122.15 91.448 121.704 91.6858C121.198 91.9371 120.638 92.0585 120.075 92.0394C119.625 92.0428 119.178 91.9546 118.762 91.7797C118.357 91.6114 117.99 91.3621 117.681 91.0468C117.364 90.7193 117.114 90.3315 116.946 89.9056C116.76 89.4402 116.667 88.9419 116.673 88.4398C116.67 87.9596 116.752 87.4827 116.915 87.032C117.066 86.6099 117.295 86.2208 117.589 85.8857C117.878 85.5612 118.229 85.3001 118.621 85.1186C119.031 84.9296 119.477 84.8339 119.927 84.8384C120.391 84.8297 120.852 84.9278 121.273 85.1254C121.658 85.309 121.999 85.5755 122.272 85.9062C122.55 86.2485 122.76 86.6425 122.889 87.0662C123.032 87.5278 123.103 88.009 123.1 88.4927V88.6397C123.099 88.6968 123.095 88.7539 123.086 88.8105H117.718C117.746 89.1553 117.835 89.4922 117.981 89.8048M122.068 88.0605C122.043 87.7556 121.979 87.4553 121.878 87.167C121.784 86.8944 121.643 86.6414 121.46 86.4204C121.28 86.2053 121.058 86.0307 120.807 85.9079C120.528 85.7737 120.222 85.7076 119.913 85.7148C119.63 85.7095 119.349 85.7678 119.09 85.8857C118.836 86.0043 118.608 86.172 118.417 86.3794C118.219 86.5965 118.06 86.8468 117.947 87.1192C117.822 87.416 117.743 87.7306 117.712 88.052L122.068 88.0605Z" fill="white"/>
<path d="M128.893 91.6615C128.399 91.9282 127.844 92.0583 127.284 92.039C126.807 92.0437 126.334 91.9459 125.897 91.752C125.483 91.5699 125.109 91.3076 124.794 90.9798C124.48 90.6511 124.232 90.2635 124.064 89.8386C123.888 89.3986 123.799 88.9279 123.801 88.4531C123.799 87.9755 123.888 87.502 124.064 87.059C124.232 86.6303 124.48 86.2386 124.794 85.9058C125.108 85.5743 125.482 85.309 125.897 85.1251C126.334 84.9312 126.807 84.8334 127.284 84.838C127.58 84.8356 127.875 84.8671 128.164 84.932C128.414 84.9893 128.657 85.0764 128.886 85.1917C129.101 85.3002 129.304 85.432 129.491 85.5846C129.668 85.7342 129.837 85.8945 129.996 86.0647L129.322 86.7856C129.058 86.5059 128.76 86.2598 128.437 86.0527C128.081 85.838 127.672 85.7313 127.259 85.7452C126.928 85.7426 126.601 85.8131 126.299 85.9519C126.005 86.0864 125.741 86.2813 125.525 86.5243C125.302 86.7734 125.128 87.0633 125.012 87.3785C124.887 87.7118 124.825 88.0658 124.828 88.4223C124.826 88.7815 124.891 89.138 125.018 89.473C125.139 89.7888 125.317 90.0787 125.543 90.3272C125.765 90.5706 126.034 90.7653 126.333 90.8995C126.645 91.0399 126.983 91.1104 127.324 91.1062C127.731 91.1145 128.132 91.0131 128.488 90.8124C128.826 90.6161 129.134 90.369 129.4 90.0795L130.045 90.6928C129.712 91.078 129.319 91.4052 128.881 91.6615" fill="white"/>
<path d="M132.435 89.9188C132.435 90.3459 132.54 90.6437 132.75 90.8123C132.989 90.9905 133.281 91.0797 133.578 91.0652C133.743 91.0664 133.908 91.0486 134.069 91.0122C134.24 90.97 134.406 90.9075 134.563 90.826V91.7058C134.386 91.8035 134.199 91.8776 134.004 91.9262C133.786 91.977 133.564 92.0016 133.34 91.9997C133.083 92.0015 132.826 91.9653 132.578 91.892C132.351 91.8269 132.142 91.71 131.967 91.5504C131.789 91.3825 131.652 91.1749 131.566 90.9439C131.464 90.6578 131.415 90.3547 131.422 90.0504V85.8904H130.476V84.9849H131.422V82.9041H132.432V84.9849H134.586V85.8921H132.432L132.435 89.9188Z" fill="white"/>
<path d="M140.54 84.9854H141.539V91.8805H140.54V90.6846C140.31 91.0612 140.006 91.3857 139.647 91.6379C139.222 91.9168 138.721 92.0542 138.215 92.0309C137.84 92.0379 137.467 91.97 137.118 91.831C136.808 91.7053 136.53 91.5123 136.303 91.2655C136.077 91.0123 135.905 90.7145 135.798 90.3908C135.675 90.0311 135.615 89.6525 135.619 89.2718V84.9854H136.629V89.0121C136.629 89.6527 136.798 90.1601 137.116 90.5326C137.434 90.905 137.905 91.0929 138.51 91.0929C138.786 91.0951 139.06 91.0429 139.318 90.9392C139.561 90.842 139.78 90.6921 139.961 90.5001C140.145 90.302 140.29 90.0701 140.388 89.8168C140.495 89.5363 140.548 89.2376 140.545 88.9369L140.54 84.9854Z" fill="white"/>
<path d="M144.167 91.8799H143.157V84.9847H144.167V86.7854C144.288 86.5046 144.442 86.24 144.627 85.9978C144.807 85.7617 145.02 85.5529 145.258 85.3776C145.493 85.2051 145.755 85.0724 146.032 84.9847C146.326 84.8943 146.633 84.8539 146.94 84.8651V85.9722H146.86C146.502 85.973 146.147 86.0437 145.815 86.1806C145.488 86.3132 145.194 86.518 144.955 86.7802C144.697 87.0678 144.501 87.4063 144.378 87.7745C144.23 88.2142 144.158 88.6767 144.167 89.1413V91.8799Z" fill="white"/>
<path d="M148.852 85.9384C148.52 86.0326 148.197 86.1555 147.885 86.3057L147.582 85.4652C147.95 85.2908 148.333 85.1501 148.725 85.0449C149.16 84.9365 149.606 84.8849 150.053 84.8911C150.98 84.8911 151.694 85.1246 152.195 85.5916C152.695 86.0585 152.945 86.7499 152.944 87.6656V91.8803H151.971V90.8398C151.708 91.1738 151.385 91.4544 151.02 91.6667C150.559 91.9213 150.039 92.0453 149.515 92.0255C149.201 92.0258 148.889 91.9809 148.587 91.8922C148.294 91.8075 148.018 91.6697 147.773 91.4856C147.534 91.3064 147.337 91.0767 147.195 90.8125C147.045 90.5209 146.97 90.1952 146.978 89.866C146.972 89.5314 147.044 89.2 147.189 88.8991C147.329 88.6197 147.534 88.3793 147.786 88.1986C148.066 88.0028 148.378 87.8583 148.707 87.7715C149.092 87.6704 149.488 87.6215 149.885 87.6263C150.268 87.622 150.65 87.6483 151.028 87.7049C151.347 87.7577 151.663 87.829 151.974 87.9184V87.6793C151.974 87.0574 151.797 86.5882 151.442 86.2715C151.089 85.9572 150.59 85.7983 149.951 85.7983C149.581 85.7946 149.212 85.8418 148.855 85.9384M148.53 88.7727C148.367 88.8927 148.236 89.0517 148.148 89.2355C148.06 89.4194 148.017 89.6225 148.025 89.8268C148.021 90.0309 148.068 90.2328 148.163 90.4127C148.255 90.5825 148.382 90.7305 148.535 90.8467C148.699 90.9692 148.883 91.0617 149.079 91.12C149.289 91.1823 149.508 91.2134 149.727 91.2123C150.027 91.2149 150.326 91.1676 150.611 91.0722C150.871 90.9874 151.115 90.8567 151.331 90.6861C151.531 90.5275 151.697 90.3278 151.816 90.1001C151.935 89.867 151.996 89.6076 151.993 89.345V88.6787C151.74 88.6086 151.449 88.542 151.122 88.4788C150.753 88.4137 150.378 88.3829 150.003 88.3866C149.365 88.3866 148.877 88.5147 148.535 88.7727" fill="white"/>
<path d="M155.546 82.1436H154.534V91.8781H155.546V82.1436Z" fill="white"/>
<path d="M164.058 85.0124V85.8923H161.917V91.8803H160.907V85.8923H159.975V84.9988H160.907V84.3991C160.907 83.6417 161.084 83.0683 161.439 82.6787C161.794 82.2892 162.299 82.0933 162.954 82.091C163.158 82.0889 163.363 82.1026 163.565 82.132C163.737 82.1583 163.907 82.203 164.07 82.2653V83.1588C163.886 83.1041 163.72 83.0631 163.565 83.0324C163.406 82.9991 163.243 82.983 163.08 82.9845C162.295 82.9845 161.902 83.4737 161.902 84.4521V85.0124H164.058Z" fill="white"/>
<path d="M164.715 82.3455H165.871V83.4781H164.715V82.3455ZM164.78 84.985H165.79V91.8801H164.78V84.985Z" fill="white"/>
<path d="M168.591 82.1436H167.58V91.8781H168.591V82.1436Z" fill="white"/>
<path d="M176.08 85.6784C176.233 85.5093 176.407 85.3612 176.598 85.2376C176.801 85.1097 177.02 85.0113 177.25 84.9455C177.513 84.8706 177.785 84.8344 178.058 84.8378C178.843 84.8378 179.46 85.0844 179.909 85.5776C180.358 86.0707 180.583 86.749 180.583 87.6123V91.8833H179.573V87.8549C179.573 87.1886 179.417 86.6761 179.106 86.3173C178.944 86.1354 178.743 85.9925 178.519 85.8991C178.295 85.8058 178.054 85.7642 177.812 85.7774C177.565 85.7759 177.319 85.8235 177.09 85.9175C176.863 86.0098 176.66 86.1508 176.492 86.331C176.313 86.5254 176.175 86.7543 176.085 87.0041C175.98 87.2944 175.929 87.602 175.933 87.9113V91.885H174.935V87.831C174.935 87.1818 174.78 86.6772 174.469 86.3173C174.309 86.1363 174.11 85.9938 173.889 85.9004C173.667 85.8071 173.428 85.765 173.188 85.7774C172.93 85.7746 172.674 85.8288 172.439 85.9363C172.211 86.0438 172.007 86.1986 171.841 86.3908C171.667 86.5909 171.531 86.8228 171.441 87.0741C171.341 87.3538 171.292 87.6496 171.296 87.9471V91.8765H170.286V84.9847H171.296V86.1448C171.412 85.9733 171.536 85.8085 171.67 85.651C171.806 85.4913 171.963 85.3506 172.136 85.2325C172.319 85.1078 172.518 85.0111 172.729 84.9455C172.975 84.8697 173.232 84.8334 173.489 84.8378C173.975 84.8179 174.454 84.9562 174.856 85.2325C175.206 85.4821 175.487 85.8193 175.671 86.2114C175.795 86.0232 175.934 85.845 176.085 85.6784" fill="white"/>
<path d="M0 58.8294L7.40631 56.4052C8.55092 59.2651 10.3671 59.8955 11.7996 59.8955C13.1361 59.8955 14.3783 59.4103 14.3783 58.1512C14.3783 56.6478 12.6597 56.1148 11.2744 55.6791L8.31358 54.7583C4.73162 53.6427 1.24392 51.4132 1.24392 46.6143C1.24392 41.3797 5.45205 37.7441 11.7491 37.7441C17.3846 37.7441 21.1585 40.7014 22.256 44.6752L14.9473 47.0994C14.4221 45.596 13.5148 44.2395 11.6043 44.2395C10.1719 44.2395 9.21749 45.0152 9.21749 46.0812C9.21749 47.5351 11.4141 48.1655 13.3718 48.7464L15.2351 49.2794C17.7179 50.0072 22.8754 51.4132 22.8754 57.4798C22.8754 63.1039 18.6252 66.4968 11.8922 66.4968C5.49582 66.4968 1.19343 63.4422 0 58.838" fill="white"/>
<path d="M27.1255 38.5161H35.0065V41.9569H35.1007C37.4893 38.9517 39.9721 37.7405 43.1248 37.7405C50.4789 37.7405 54.5389 44.2837 54.5389 51.9426C54.5389 61.2005 48.6644 66.4846 42.5037 66.4846C38.7315 66.4846 36.3901 64.5455 35.0974 62.7995V76.3234H27.1255V38.5161ZM40.642 58.7284C43.9849 58.7284 46.3247 55.9659 46.3247 52.1356C46.3247 48.2592 43.9849 45.495 40.642 45.495C37.2503 45.495 34.9189 48.2592 34.9189 52.1356C34.9189 55.9659 37.2587 58.7284 40.6504 58.7284" fill="white"/>
<path d="M57.3567 52.2367C57.3567 43.9491 62.9434 37.7441 70.8715 37.7441C78.1314 37.7441 84.0009 42.8814 84.0009 52.5271V54.4661H65.2848C66.0002 57.7121 68.6277 59.2172 71.3967 59.2172C73.4031 59.2172 75.4567 58.2469 76.507 55.8243L84.0059 58.9268C82.3344 62.9484 77.894 66.4883 71.4943 66.4883C63.4702 66.4883 57.355 60.9137 57.355 52.2367M76.0273 49.1342C75.4062 45.9838 73.4486 44.6274 70.8227 44.6274C68.0049 44.6274 66.3334 46.5169 65.6652 49.1342H76.0273Z" fill="white"/>
<path d="M86.8676 52.1393C86.8676 43.2213 92.9273 37.7441 100.717 37.7441C106.829 37.7441 111.749 41.1371 113.564 46.469L106.114 49.5715C105.158 46.5169 102.916 45.4987 100.717 45.4987C97.3745 45.4987 95.0819 48.3585 95.0819 52.0914C95.0819 56.26 97.8997 58.7321 101.004 58.7321C103.192 58.7321 105.446 57.5686 106.543 54.6609L114.04 57.7634C112.226 63.0953 107.307 66.4883 101.004 66.4883C93.0755 66.4883 86.8643 61.1068 86.8643 52.1376" fill="white"/>
<path d="M120.492 56.8427V45.8867H115.239V38.5165H120.492V30.9551H128.467V38.5165H135.345V45.8832H128.467V53.8325C128.467 56.2089 128.467 59.1166 132.049 59.1166C133.339 59.1166 134.485 58.7288 135.344 58.3889V65.5642C134.007 66.2476 132.24 66.485 130.378 66.485C120.492 66.485 120.492 59.5044 120.492 56.8393" fill="white"/>
<path d="M139.737 38.516H147.618V42.1994H147.801C149.148 39.9699 151.432 37.7404 154.918 37.7404C155.752 37.731 156.58 37.8781 157.36 38.1744V47.2871C156.308 46.9595 155.213 46.7959 154.112 46.8019C147.715 46.8019 147.715 52.7164 147.715 56.1572V65.6577H139.737V38.516Z" fill="white"/>
<path d="M158.84 58.2469C158.84 53.207 162.614 51.1706 167.103 50.2019C173.5 48.7959 174.846 48.5533 174.846 46.9047C174.846 45.3056 173.557 44.2874 171.503 44.2874C169.64 44.2874 167.826 45.2082 167.014 48.0681L159.608 45.5482C161.328 39.7396 166.341 37.7441 171.786 37.7441C179.046 37.7441 182.867 41.2823 182.867 47.5829V57.1808C182.867 61.5919 183.204 63.531 183.726 65.6631H175.794C175.457 64.7918 175.365 63.8693 175.365 62.8528H175.269C173.932 65.1796 170.972 66.4883 168.011 66.4883C163.426 66.4883 158.84 63.8214 158.84 58.2469ZM170.446 60.3311C173.215 60.3311 174.887 58.1512 174.887 55.6791V54.0305C173.55 54.4183 170.78 55.0965 170.064 55.2913C168.346 55.7748 167.58 56.7452 167.58 58.0043C167.58 59.6529 168.871 60.3311 170.441 60.3311" fill="white"/>
<path d="M217.362 37.8754V6.48152L250 0.0664062C249.899 12.6557 249.798 25.1802 249.695 37.8754H217.362Z" fill="white"/>
<path d="M188.568 12.1361L210.113 7.9043V38.1006H188.573C188.573 28.9879 188.573 24.0113 188.573 12.1326" fill="white"/>
<path d="M221.206 44.6113V76.0052L188.575 82.422C188.585 82.422 188.597 44.625 188.597 44.6147L221.206 44.6113Z" fill="white"/>
<path d="M249.335 45.0083C249.335 48.9702 249.335 52.1666 249.335 55.5646C249.335 59.5333 249.335 63.7753 249.335 69.8265L239.572 71.7451L229.029 73.8157V45.0083H249.335ZM249.953 44.3813H228.417V74.564L249.963 70.3322C249.963 58.4587 249.963 53.4821 249.963 44.3643" fill="white"/>
<path d="M249.965 70.3766L228.459 74.5793L228.444 44.3984H237.323L249.988 58.0812L249.965 70.3766Z" fill="white"/>
<path d="M249.362 57.6926H237.492V45.0059" stroke="white" stroke-miterlimit="10"/>
</g>
<defs>
<clipPath id="clip0_176_971">
<rect width="250" height="92" fill="white" transform="translate(0 0.0664062)"/>
</clipPath>
</defs>
</svg>
